<svg aria-hidden="true" style="position:absolute;width:0;height:0" xmlns="http://www.w3.org/2000/svg" overflow="hidden"><defs><symbol id="search" viewBox="0 0 18 18"><path d="M7.012 3c2.193 0 3.977 1.794 3.977 4 0 .831-.255 1.63-.737 2.312l-.392.553-.55.393A3.931 3.931 0 0 1 7.012 11c-2.193 0-3.977-1.794-3.977-4s1.784-4 3.977-4zm0-2C3.717 1 1.046 3.686 1.046 7s2.671 6 5.966 6a5.902 5.902 0 0 0 3.451-1.112l4.791 4.819a.99.99 0 0 0 1.409 0 1.005 1.005 0 0 0 0-1.416l-4.791-4.819a5.986 5.986 0 0 0 1.105-3.471c0-3.314-2.671-6-5.965-6z"/></symbol><symbol id="film" viewBox="0 0 32 32"><path fill="none" stroke="var(--color1, #818181)" stroke-linejoin="round" stroke-linecap="round" stroke-width="2.667" d="M26.427 2.667H5.574a2.907 2.907 0 0 0-2.907 2.907v20.853a2.907 2.907 0 0 0 2.907 2.907h20.853a2.907 2.907 0 0 0 2.907-2.907V5.574a2.907 2.907 0 0 0-2.907-2.907zM9.333 2.667v26.667M22.667 2.667v26.667M2.667 16h26.667M2.667 9.333h6.667M2.667 22.667h6.667M22.667 22.667h6.667M22.667 9.333h6.667"/></symbol></defs></svg>