<svg aria-hidden="true" style="position:absolute;width:0;height:0" xmlns="http://www.w3.org/2000/svg" overflow="hidden"><defs><symbol id="search" viewBox="0 0 30 32" ><path d="M20.576 14.848q0-3.296-2.336-5.632t-5.664-2.368-5.664 2.368-2.336 5.632 2.336 5.664 5.664 2.336 5.664-2.336 2.336-5.664zm9.152 14.88q0 .928-.704 1.6t-1.6.672q-.96 0-1.6-.672l-6.112-6.112q-3.2 2.208-7.136 2.208-2.56 0-4.896-.992t-4-2.688-2.688-4T0 14.848t.992-4.864T3.68 5.952t4-2.688 4.896-.992 4.896.992 4 2.688 2.688 4.032.992 4.864q0 3.936-2.208 7.136l6.112 6.112q.672.672.672 1.632z"/></symbol><symbol id="film" viewBox="0 0 32 32"><path fill="none" stroke="var(--color1, #818181)" stroke-linejoin="round" stroke-linecap="round" stroke-width="2.667" d="M26.427 2.667H5.574a2.907 2.907 0 0 0-2.907 2.907v20.853a2.907 2.907 0 0 0 2.907 2.907h20.853a2.907 2.907 0 0 0 2.907-2.907V5.574a2.907 2.907 0 0 0-2.907-2.907zM9.333 2.667v26.667M22.667 2.667v26.667M2.667 16h26.667M2.667 9.333h6.667M2.667 22.667h6.667M22.667 22.667h6.667M22.667 9.333h6.667"/></symbol></defs></svg>